<?xml version="1.0"?>
<svg xmlns="http://www.w3.org/2000/svg" width="143" height="25" viewBox="0 0 326 64"> <g fill="none" fill-rule="evenodd"> <path fill="#242adb" d="M0.296595745,39.0126249 C0.0228924389,39.0126249 -0.0770581864,38.8198241 0.0631569291,38.5981097 L24.3776527,0.150938738 C24.5224313,-0.0779916882 24.6397976,-0.0452975217 24.6397976,0.240781612 L24.6397976,24.9854101 L40.7034043,24.9854101 C40.9771076,24.9854101 41.0770582,25.1782109 40.9368431,25.3999253 L16.6223473,63.8470963 C16.4775687,64.0760267 16.3602024,64.0433326 16.3602024,63.7572534 L16.3602024,39.0126249 L0.296595745,39.0126249 Z"></path> <path fill="#050633" d="M78.8706176,33.6515483 L78.8706176,17.9826016 L86.6157146,17.9826016 L86.6157146,47.3697425 L78.8706176,47.3697425 L78.8706176,43.2165278 C77.2200232,46.3629026 73.6648967,47.9990175 70.6811298,47.9990175 C63.6978457,47.9990175 59,43.6570203 59,35.3505907 L59,17.9826016 L66.8085814,17.9826016 L66.8085814,33.9661858 C66.8085814,38.7486755 69.7288638,40.5106454 72.4586931,40.5106454 C75.6963975,40.5106454 78.8706176,38.7486755 78.8706176,33.6515483 Z M92.0171787,32.5817809 C92.0171787,23.3314389 99.508338,17.3533267 108.015248,17.3533267 C112.967031,17.3533267 117.537908,19.4299341 120.331222,23.0797289 L114.173235,27.6734361 C112.776578,25.7856112 110.427655,24.7787713 108.015248,24.7787713 C103.698308,24.7787713 99.6987912,27.7992911 99.6987912,32.5817809 C99.6987912,37.3642706 103.698308,40.6365004 108.015248,40.6365004 C110.427655,40.6365004 112.776578,39.566733 114.173235,37.6789081 L120.394706,42.2096878 C117.601392,45.8594826 113.030515,47.9990175 108.015248,47.9990175 C99.508338,47.9990175 92.0171787,41.8321229 92.0171787,32.5817809 Z M134.223845,36.9867056 L134.223845,47.3697425 L126.478748,47.3697425 L126.478748,17.9826016 L134.223845,17.9826016 L134.223845,24.9046263 C135.747471,19.5557891 139.239113,17.3533267 142.603786,17.3533267 C144.698771,17.3533267 146.285881,17.7938192 147.492085,18.4230941 L146.158913,25.3451187 C144.317865,24.5270613 142.413333,24.5270613 141.65152,24.5270613 C136.382315,24.5270613 134.223845,29.183696 134.223845,36.9867056 Z M179.049122,32.5817809 C179.049122,33.3369108 178.985638,34.5325332 178.922154,35.2247357 L156.321707,35.2247357 C156.829582,39.1262405 160.130771,41.5174854 164.511194,41.5174854 C167.494961,41.5174854 170.542213,40.2589354 171.938869,37.7418356 C173.779917,38.7486755 175.938387,39.8813705 177.842919,40.8882104 C175.176574,45.9224101 169.462978,47.9990175 164.003319,47.9990175 C155.559894,47.9990175 148.640094,41.8321229 148.640094,32.5817809 C148.640094,23.3314389 155.559894,17.3533267 164.003319,17.3533267 C172.446745,17.3533267 179.049122,23.3314389 179.049122,32.5817809 Z M156.258222,30.0017535 L171.494479,30.0017535 C170.923119,25.9743937 167.875868,23.7719313 164.066804,23.7719313 C160.003802,23.7719313 156.829582,26.0373212 156.258222,30.0017535 Z M207.606643,47.3697425 L207.606643,43.5940928 C205.70211,46.6146126 201.321687,47.93609 198.401404,47.93609 C190.592823,47.93609 183.292117,42.0209053 183.292117,32.6447083 C183.292117,23.2055839 190.592823,17.3533267 198.401404,17.3533267 C201.067749,17.3533267 205.448173,18.3601666 207.606643,21.6323964 L207.606643,17.9826016 L215.351739,17.9826016 L215.351739,47.3697425 L207.606643,47.3697425 Z M191.291151,32.6447083 C191.291151,37.3642706 195.227184,40.5735729 199.480639,40.5735729 C203.67061,40.5735729 207.606643,37.6789081 207.606643,32.6447083 C207.606643,27.5475811 203.543641,24.7158438 199.480639,24.7158438 C195.227184,24.7158438 191.291151,27.8622186 191.291151,32.6447083 Z M233.81524,6.78150726 L233.81524,17.9826016 L240.100196,17.9826016 L240.100196,24.1494963 L233.81524,24.1494963 L233.81524,47.3697425 L226.133627,47.3697425 L226.133627,24.1494963 L220.737453,24.1494963 L220.737453,17.9826016 L226.133627,17.9826016 L226.133627,6.78150726 L233.81524,6.78150726 Z M273.672983,32.5817809 C273.672983,33.3369108 273.609499,34.5325332 273.546015,35.2247357 L250.945568,35.2247357 C251.453443,39.1262405 254.754632,41.5174854 259.135055,41.5174854 C262.118822,41.5174854 265.166074,40.2589354 266.56273,37.7418356 C268.403778,38.7486755 270.562248,39.8813705 272.46678,40.8882104 C269.800435,45.9224101 264.086839,47.9990175 258.62718,47.9990175 C250.183755,47.9990175 243.263955,41.8321229 243.263955,32.5817809 C243.263955,23.3314389 250.183755,17.3533267 258.62718,17.3533267 C267.070606,17.3533267 273.672983,23.3314389 273.672983,32.5817809 Z M250.882083,30.0017535 L266.11834,30.0017535 C265.54698,25.9743937 262.499729,23.7719313 258.690665,23.7719313 C254.627663,23.7719313 251.453443,26.0373212 250.882083,30.0017535 Z M277.995213,43.2165278 C277.995213,40.4477179 280.280651,38.434038 282.946996,38.434038 C285.74031,38.434038 288.025748,40.4477179 288.025748,43.2165278 C288.025748,45.9853376 285.74031,47.9990175 282.946996,47.9990175 C280.280651,47.9990175 277.995213,45.9853376 277.995213,43.2165278 Z M302.251544,17.9826016 L302.251544,47.3697425 L294.569931,47.3697425 L294.569931,17.9826016 L302.251544,17.9826016 Z M293.427212,6.59272477 C293.427212,4.01269741 295.712651,1.99901752 298.44248,1.99901752 C301.108825,1.99901752 303.330779,4.01269741 303.330779,6.59272477 C303.330779,9.23567962 301.108825,11.2493595 298.44248,11.2493595 C295.712651,11.2493595 293.427212,9.23567962 293.427212,6.59272477 Z M319.715044,6.78150726 L319.715044,17.9826016 L326,17.9826016 L326,24.1494963 L319.715044,24.1494963 L319.715044,47.3697425 L312.033432,47.3697425 L312.033432,24.1494963 L306.637258,24.1494963 L306.637258,17.9826016 L312.033432,17.9826016 L312.033432,6.78150726 L319.715044,6.78150726 Z"></path> </g> </svg>